<?xml version="1.0" encoding="UTF-8"?>
<svg width="349px" height="349px" viewBox="0 0 349 349" version="1.1" xmlns="http://www.w3.org/2000/svg" xmlns:xlink="http://www.w3.org/1999/xlink">
    <title>Group</title>
    <g id="Page-1" stroke="none" stroke-width="1" fill="none" fill-rule="evenodd">
        <g id="Artboard" transform="translate(-139.000000, -177.000000)">
            <g id="Group" transform="translate(139.000000, 177.000000)">
                <rect id="Rectangle" fill="#888888" x="0" y="0" width="349" height="349"></rect>
                <path d="M133.98192,257.3125 C146.376339,262.990234 160.049107,266.21875 174.5,266.21875 C188.950893,266.21875 202.679241,262.990234 215.01808,257.3125 L215.01808,257.3125 L224.3,257.3125 C265.540625,257.3125 299,290.822266 299,332.125 L299,332.125 L299,349 L50,349 L50,332.125 C50,291.235293 82.7935334,257.983475 123.465141,257.322527 L124.7,257.3125 Z M174.5,97 C213.795312,97 245.642857,128.895508 245.642857,168.25 C245.642857,207.604492 213.795312,239.5 174.5,239.5 C135.204688,239.5 103.357143,207.604492 103.357143,168.25 C103.357143,128.895508 135.204688,97 174.5,97 Z" id="Combined-Shape" fill="#FFFFFF"></path>
            </g>
        </g>
    </g>
</svg>